<svg width="255" height="36" viewBox="0 0 255 36" fill="none" xmlns="http://www.w3.org/2000/svg">
<path d="M112.524 26.4759C113.547 30.9951 116.557 33.6695 122.149 33.6695C128.37 33.6695 130.73 30.5589 130.73 26.862C130.73 23.022 129.028 20.6408 121.541 18.7888C114.369 16.994 111.259 14.6843 111.259 9.75025C111.259 5.27389 114.519 1.0907 121.813 1.0907C129.3 1.0907 132.461 5.66717 132.897 9.8003H130.172C129.393 6.15342 127.012 3.52195 121.663 3.52195C116.75 3.52195 114.076 5.81019 114.076 9.60008C114.076 13.39 116.314 14.8058 122.585 16.3575C132.167 18.7459 133.576 22.5858 133.576 26.6689C133.576 31.6744 129.929 36.0006 122.056 36.0006C113.547 36.0006 110.429 31.0452 109.8 26.4759H112.524Z" fill="#E7297C"/>
<path d="M141.021 1.57422H153.177C159.405 1.57422 163.682 5.02803 163.682 11.0561C163.682 17.0842 159.455 20.7811 152.841 20.7811H143.688V35.6118H141.014L141.021 1.57422ZM143.688 18.3499H153.07C158.562 18.3499 160.85 15.4324 160.85 11.1562C160.85 6.5869 157.832 4.00548 153.263 4.00548H143.688V18.3499Z" fill="#E7297C"/>
<path d="M170.633 23.8488L166.307 35.6118H163.633L176.125 1.57422H179.236L192.264 35.6118H189.404L184.985 23.8488H170.633ZM184.098 21.4175C180.308 11.2992 178.378 6.43673 177.663 4.15564H177.613C176.783 6.72991 174.595 12.7365 171.534 21.4175H184.098Z" fill="#E7297C"/>
<path d="M200.975 19.6883V35.5844H198.301V1.54688H210.507C217.215 1.54688 220.761 5.12224 220.761 10.4996C220.761 14.8258 218.187 17.6504 214.39 18.4727C217.894 19.295 220.225 21.5833 220.225 27.3682V28.684C220.225 31.0652 220.032 34.2687 220.668 35.5844H217.994C217.358 34.1543 217.508 31.4012 217.508 28.4837V27.6113C217.508 22.0195 215.849 19.6883 209.334 19.6883H200.975ZM200.975 17.2571H209.191C215.169 17.2571 217.944 15.0189 217.944 10.5425C217.944 6.36648 215.219 3.98527 209.921 3.98527H200.975V17.2571Z" fill="#E7297C"/>
<path d="M229.078 1.57422H231.702V19.2723C234.427 16.648 244.152 7.50934 250.23 1.57422H253.727L238.467 16.0688L254.606 35.6118H251.346L236.565 17.7349L231.702 22.0254V35.6118H229.078V1.57422Z" fill="#E7297C"/>
<path d="M39.5547 0.473267H57.1026C68.6654 0.473267 72.7485 9.05416 72.7485 17.7781C72.7485 28.4184 67.1137 35.1758 55.0075 35.1758H39.5547V0.473267ZM50.2451 26.2803H54.4282C61.0856 26.2803 62.0581 20.8887 62.0581 17.6351C62.0581 15.4469 61.343 9.3688 53.6488 9.3688H50.2451V26.2803Z" fill="#1D1D1B"/>
<path d="M84.4675 23.4187C84.4595 24.182 84.5904 24.9404 84.8536 25.6569C85.6259 27.7092 87.9499 28.1382 89.9307 28.1382C91.6683 28.1382 94.3284 27.5661 94.3284 25.0419C94.3284 23.2757 92.8267 22.7966 86.8844 21.1305C81.4284 19.6074 75.193 18.1271 75.193 11.2553C75.193 3.38946 82.0076 0 89.1083 0C96.5952 0 103.217 2.81739 103.503 11.1123H93.456C93.5536 10.5848 93.485 10.0399 93.2595 9.55316C93.0341 9.06637 92.6629 8.66166 92.1975 8.39498C91.2609 7.80042 90.1671 7.50142 89.0583 7.53688C87.6281 7.53688 85.2398 7.91588 85.2398 9.82513C85.4328 12.2564 90.3669 12.7855 95.2508 14.1156C100.135 15.4456 104.962 17.691 104.962 23.9336C104.962 32.8076 96.7024 35.6679 89.0154 35.6679C85.1039 35.6679 73.9416 34.2878 73.8486 23.4116L84.4675 23.4187Z" fill="#1D1D1B"/>
<path d="M25.4232 0.473267L0.681641 35.1758H12.795L19.009 25.0575L24.8512 35.1758H37.7297L25.3374 16.8056L36.464 0.473267H25.4232Z" fill="#1D1D1B"/>
<path d="M12.988 0.473267L18.2939 7.89574L12.4446 15.8545L1.94727 0.473267H12.988Z" fill="#E7297C"/>
</svg>
